<svg id="Layer_1" data-name="Layer 1" xmlns="http://www.w3.org/2000/svg" viewBox="0 0 267.79 87.4"><defs><style>.cls-1{font-size:50px;font-family:Averta-Regular, Averta;}.cls-2{fill:#0025ff;}.cls-3{fill:red;}.cls-4{fill:#fff;}</style></defs><title>index</title><text class="cls-1" transform="matrix(0.98, -0.19, 0.19, 0.98, 33.35, 59.33)">B</text><text class="cls-1" transform="matrix(0.99, -0.16, 0.16, 0.99, 64.43, 53.33)">l</text><text class="cls-1" transform="translate(76.5 51.22) rotate(-7.54)">o</text><text class="cls-1" transform="translate(105.77 47.39) rotate(-5.38)">c</text><text class="cls-1" transform="matrix(1, -0.06, 0.06, 1, 131.48, 44.96)">k</text><text class="cls-1" transform="matrix(1, -0.02, 0.02, 1, 155.97, 43.4)">V</text><text class="cls-1" transform="matrix(1, 0.01, -0.01, 1, 185.87, 42.64)">o</text><text class="cls-1" transform="matrix(1, 0.04, -0.04, 1, 215.21, 43.02)">t</text><text class="cls-1" transform="translate(232.08 43.59) rotate(3.71)">e</text><polygon class="cls-2" points="31.19 61.5 45.32 87.4 99.46 74.45 84.16 55.66 31.19 61.5"/><path class="cls-3" d="M196.36,128.43s87.7-16.51,157.15-3.57-151.85,8.24-151.85,8.24Z" transform="translate(-107.49 -72.78)"/><path class="cls-3" d="M215.15,147.94l-5.3-4.67s87.7-16.52,157.15-3.57" transform="translate(-107.49 -72.78)"/><polygon class="cls-4" points="62.39 71.53 57.48 73.95 56.69 79.36 52.87 75.44 47.48 76.37 50.03 71.53 47.48 66.68 52.87 67.61 56.69 63.69 57.48 69.11 62.39 71.53"/></svg>